<svg width="947" height="569" viewBox="0 0 947 569" fill="none" xmlns="http://www.w3.org/2000/svg">
<path d="M0 568.5V0H946.5V568.5H0Z" fill="#FFB3B3"/>
<ellipse cx="286.5" cy="69" rx="9.5" ry="10" fill="#FFEFC1"/>
<ellipse cx="335.5" cy="25" rx="9.5" ry="10" fill="#FFEFC1"/>
<ellipse cx="276.5" cy="144" rx="9.5" ry="10" fill="#FFEFC1"/>
<ellipse cx="276.5" cy="144" rx="9.5" ry="10" fill="#FFEFC1"/>
<ellipse cx="325.5" cy="188" rx="9.5" ry="10" fill="#FFEFC1"/>
<ellipse cx="236.5" cy="15" rx="9.5" ry="10" fill="#FFEFC1"/>
<ellipse cx="286.5" cy="239" rx="9.5" ry="10" fill="#FFEFC1"/>
<ellipse cx="9.5" cy="10" rx="9.5" ry="10" transform="matrix(1 0 0 -1 237 304)" fill="#FFEFC1"/>
<ellipse cx="9.5" cy="10" rx="9.5" ry="10" transform="matrix(1 0 0 -1 306 314)" fill="#FFEFC1"/>
<ellipse cx="9.5" cy="10" rx="9.5" ry="10" transform="matrix(1 0 0 -1 227 114)" fill="#FFEFC1"/>
<ellipse cx="9.5" cy="10" rx="9.5" ry="10" transform="matrix(1 0 0 -1 227 229)" fill="#FFEFC1"/>
<ellipse cx="335.5" cy="104" rx="9.5" ry="10" fill="#FFEFC1"/>
<ellipse cx="414.5" cy="123" rx="9.5" ry="10" fill="#FFEFC1"/>
<ellipse cx="463.5" cy="79" rx="9.5" ry="10" fill="#FFEFC1"/>
<ellipse cx="404.5" cy="198" rx="9.5" ry="10" fill="#FFEFC1"/>
<ellipse cx="404.5" cy="198" rx="9.5" ry="10" fill="#FFEFC1"/>
<ellipse cx="453.5" cy="242" rx="9.5" ry="10" fill="#FFEFC1"/>
<ellipse cx="364.5" cy="69" rx="9.5" ry="10" fill="#FFEFC1"/>
<ellipse cx="414.5" cy="293" rx="9.5" ry="10" fill="#FFEFC1"/>
<ellipse cx="9.5" cy="10" rx="9.5" ry="10" transform="matrix(1 0 0 -1 365 358)" fill="#FFEFC1"/>
<ellipse cx="9.5" cy="10" rx="9.5" ry="10" transform="matrix(1 0 0 -1 434 368)" fill="#FFEFC1"/>
<ellipse cx="9.5" cy="10" rx="9.5" ry="10" transform="matrix(1 0 0 -1 355 168)" fill="#FFEFC1"/>
<ellipse cx="9.5" cy="10" rx="9.5" ry="10" transform="matrix(1 0 0 -1 355 283)" fill="#FFEFC1"/>
<ellipse cx="463.5" cy="158" rx="9.5" ry="10" fill="#FFEFC1"/>
<ellipse cx="227.5" cy="395" rx="9.5" ry="10" fill="#FFEFC1"/>
<ellipse cx="276.5" cy="351" rx="9.5" ry="10" fill="#FFEFC1"/>
<ellipse cx="217.5" cy="470" rx="9.5" ry="10" fill="#FFEFC1"/>
<ellipse cx="217.5" cy="470" rx="9.5" ry="10" fill="#FFEFC1"/>
<ellipse cx="266.5" cy="514" rx="9.5" ry="10" fill="#FFEFC1"/>
<ellipse cx="177.5" cy="341" rx="9.5" ry="10" fill="#FFEFC1"/>
<ellipse cx="227.5" cy="533" rx="9.5" ry="10" fill="#FFEFC1"/>
<ellipse cx="9.5" cy="10" rx="9.5" ry="10" transform="matrix(1 0 0 -1 32 377)" fill="#FFEFC1"/>
<ellipse cx="9.5" cy="10" rx="9.5" ry="10" transform="matrix(1 0 0 -1 51 169)" fill="#FFEFC1"/>
<ellipse cx="9.5" cy="10" rx="9.5" ry="10" transform="matrix(1 0 0 -1 168 440)" fill="#FFEFC1"/>
<ellipse cx="9.5" cy="10" rx="9.5" ry="10" transform="matrix(1 0 0 -1 168 555)" fill="#FFEFC1"/>
<ellipse cx="276.5" cy="430" rx="9.5" ry="10" fill="#FFEFC1"/>
<ellipse cx="523.5" cy="262" rx="9.5" ry="10" fill="#FFEFC1"/>
<ellipse cx="572.5" cy="218" rx="9.5" ry="10" fill="#FFEFC1"/>
<ellipse cx="513.5" cy="337" rx="9.5" ry="10" fill="#FFEFC1"/>
<ellipse cx="513.5" cy="337" rx="9.5" ry="10" fill="#FFEFC1"/>
<ellipse cx="562.5" cy="381" rx="9.5" ry="10" fill="#FFEFC1"/>
<ellipse cx="473.5" cy="208" rx="9.5" ry="10" fill="#FFEFC1"/>
<ellipse cx="523.5" cy="432" rx="9.5" ry="10" fill="#FFEFC1"/>
<ellipse cx="9.5" cy="10" rx="9.5" ry="10" transform="matrix(1 0 0 -1 474 497)" fill="#FFEFC1"/>
<ellipse cx="9.5" cy="10" rx="9.5" ry="10" transform="matrix(1 0 0 -1 543 507)" fill="#FFEFC1"/>
<ellipse cx="9.5" cy="10" rx="9.5" ry="10" transform="matrix(1 0 0 -1 464 307)" fill="#FFEFC1"/>
<ellipse cx="9.5" cy="10" rx="9.5" ry="10" transform="matrix(1 0 0 -1 464 422)" fill="#FFEFC1"/>
<ellipse cx="572.5" cy="297" rx="9.5" ry="10" fill="#FFEFC1"/>
<ellipse cx="150.5" cy="42" rx="9.5" ry="10" fill="#FFEFC1"/>
<ellipse cx="44.5" cy="45" rx="9.5" ry="10" fill="#FFEFC1"/>
<ellipse cx="140.5" cy="117" rx="9.5" ry="10" fill="#FFEFC1"/>
<ellipse cx="140.5" cy="117" rx="9.5" ry="10" fill="#FFEFC1"/>
<ellipse cx="189.5" cy="161" rx="9.5" ry="10" fill="#FFEFC1"/>
<ellipse cx="92.5" cy="15" rx="9.5" ry="10" fill="#FFEFC1"/>
<ellipse cx="150.5" cy="212" rx="9.5" ry="10" fill="#FFEFC1"/>
<ellipse cx="9.5" cy="10" rx="9.5" ry="10" transform="matrix(1 0 0 -1 101 277)" fill="#FFEFC1"/>
<ellipse cx="9.5" cy="10" rx="9.5" ry="10" transform="matrix(1 0 0 -1 170 287)" fill="#FFEFC1"/>
<ellipse cx="9.5" cy="10" rx="9.5" ry="10" transform="matrix(1 0 0 -1 91 87)" fill="#FFEFC1"/>
<ellipse cx="9.5" cy="10" rx="9.5" ry="10" transform="matrix(1 0 0 -1 91 202)" fill="#FFEFC1"/>
<ellipse cx="199.5" cy="77" rx="9.5" ry="10" fill="#FFEFC1"/>
<ellipse cx="9.5" cy="10" rx="9.5" ry="10" transform="matrix(-1 0 0 1 661 129)" fill="#FFEFC1"/>
<ellipse cx="9.5" cy="10" rx="9.5" ry="10" transform="matrix(-1 0 0 1 612 85)" fill="#FFEFC1"/>
<ellipse cx="9.5" cy="10" rx="9.5" ry="10" transform="matrix(-1 0 0 1 671 204)" fill="#FFEFC1"/>
<ellipse cx="9.5" cy="10" rx="9.5" ry="10" transform="matrix(-1 0 0 1 671 204)" fill="#FFEFC1"/>
<ellipse cx="9.5" cy="10" rx="9.5" ry="10" transform="matrix(-1 0 0 1 622 248)" fill="#FFEFC1"/>
<ellipse cx="9.5" cy="10" rx="9.5" ry="10" transform="matrix(-1 0 0 1 711 75)" fill="#FFEFC1"/>
<ellipse cx="9.5" cy="10" rx="9.5" ry="10" transform="matrix(-1 0 0 1 661 299)" fill="#FFEFC1"/>
<ellipse cx="691.5" cy="364" rx="9.5" ry="10" transform="rotate(180 691.5 364)" fill="#FFEFC1"/>
<ellipse cx="622.5" cy="374" rx="9.5" ry="10" transform="rotate(180 622.5 374)" fill="#FFEFC1"/>
<ellipse cx="701.5" cy="174" rx="9.5" ry="10" transform="rotate(180 701.5 174)" fill="#FFEFC1"/>
<ellipse cx="701.5" cy="289" rx="9.5" ry="10" transform="rotate(180 701.5 289)" fill="#FFEFC1"/>
<ellipse cx="9.5" cy="10" rx="9.5" ry="10" transform="matrix(-1 0 0 1 612 164)" fill="#FFEFC1"/>
<ellipse cx="9.5" cy="10" rx="9.5" ry="10" transform="matrix(0 -1 -1 0 942 146)" fill="#FFEFC1"/>
<ellipse cx="9.5" cy="10" rx="9.5" ry="10" transform="matrix(0 -1 -1 0 22 20)" fill="#FFEFC1"/>
<ellipse cx="9.5" cy="10" rx="9.5" ry="10" transform="matrix(0 -1 -1 0 912 81)" fill="#FFEFC1"/>
<ellipse cx="9.5" cy="10" rx="9.5" ry="10" transform="matrix(0 -1 -1 0 734 50)" fill="#FFEFC1"/>
<ellipse cx="9.5" cy="10" rx="9.5" ry="10" transform="matrix(0 -1 -1 0 922 38)" fill="#FFEFC1"/>
<ellipse cx="9.5" cy="10" rx="9.5" ry="10" transform="matrix(0 -1 -1 0 926 201)" fill="#FFEFC1"/>
<ellipse cx="9.5" cy="10" rx="9.5" ry="10" transform="matrix(0 -1 -1 0 871 77)" fill="#FFEFC1"/>
<ellipse cx="806" cy="107.5" rx="9.5" ry="10" transform="rotate(-90 806 107.5)" fill="#FFEFC1"/>
<ellipse cx="796" cy="38.5" rx="9.5" ry="10" transform="rotate(-90 796 38.5)" fill="#FFEFC1"/>
<ellipse cx="932" cy="272.5" rx="9.5" ry="10" transform="rotate(-90 932 272.5)" fill="#FFEFC1"/>
<ellipse cx="881" cy="117.5" rx="9.5" ry="10" transform="rotate(-90 881 117.5)" fill="#FFEFC1"/>
<ellipse cx="9.5" cy="10" rx="9.5" ry="10" transform="matrix(0 -1 -1 0 868 20)" fill="#FFEFC1"/>
<ellipse cx="484" cy="551.5" rx="9.5" ry="10" transform="rotate(90 484 551.5)" fill="#FFEFC1"/>
<ellipse cx="897" cy="525.5" rx="9.5" ry="10" transform="rotate(90 897 525.5)" fill="#FFEFC1"/>
<ellipse cx="778" cy="466.5" rx="9.5" ry="10" transform="rotate(90 778 466.5)" fill="#FFEFC1"/>
<ellipse cx="778" cy="466.5" rx="9.5" ry="10" transform="rotate(90 778 466.5)" fill="#FFEFC1"/>
<ellipse cx="734" cy="515.5" rx="9.5" ry="10" transform="rotate(90 734 515.5)" fill="#FFEFC1"/>
<ellipse cx="843" cy="475.5" rx="9.5" ry="10" transform="rotate(90 843 475.5)" fill="#FFEFC1"/>
<ellipse cx="683" cy="476.5" rx="9.5" ry="10" transform="rotate(90 683 476.5)" fill="#FFEFC1"/>
<ellipse cx="9.5" cy="10" rx="9.5" ry="10" transform="matrix(0 1 1 0 618 427)" fill="#FFEFC1"/>
<ellipse cx="9.5" cy="10" rx="9.5" ry="10" transform="matrix(0 1 1 0 608 496)" fill="#FFEFC1"/>
<ellipse cx="9.5" cy="10" rx="9.5" ry="10" transform="matrix(0 1 1 0 575 439)" fill="#FFEFC1"/>
<ellipse cx="9.5" cy="10" rx="9.5" ry="10" transform="matrix(0 1 1 0 693 417)" fill="#FFEFC1"/>
<ellipse cx="818" cy="525.5" rx="9.5" ry="10" transform="rotate(90 818 525.5)" fill="#FFEFC1"/>
<ellipse cx="9.5" cy="10" rx="9.5" ry="10" transform="matrix(-1 0 0 1 936 326)" fill="#FFEFC1"/>
<ellipse cx="9.5" cy="10" rx="9.5" ry="10" transform="matrix(-1 0 0 1 887 282)" fill="#FFEFC1"/>
<ellipse cx="9.5" cy="10" rx="9.5" ry="10" transform="matrix(-1 0 0 1 946 401)" fill="#FFEFC1"/>
<ellipse cx="9.5" cy="10" rx="9.5" ry="10" transform="matrix(-1 0 0 1 946 401)" fill="#FFEFC1"/>
<ellipse cx="9.5" cy="10" rx="9.5" ry="10" transform="matrix(-1 0 0 1 897 445)" fill="#FFEFC1"/>
<ellipse cx="9.5" cy="10" rx="9.5" ry="10" transform="matrix(-1 0 0 1 871 164)" fill="#FFEFC1"/>
<ellipse cx="9.5" cy="10" rx="9.5" ry="10" transform="matrix(-1 0 0 1 936 496)" fill="#FFEFC1"/>
<ellipse cx="670.5" cy="541" rx="9.5" ry="10" transform="rotate(180 670.5 541)" fill="#FFEFC1"/>
<ellipse cx="564.5" cy="538" rx="9.5" ry="10" transform="rotate(180 564.5 538)" fill="#FFEFC1"/>
<ellipse cx="886.5" cy="247" rx="9.5" ry="10" transform="rotate(180 886.5 247)" fill="#FFEFC1"/>
<ellipse cx="768.5" cy="548" rx="9.5" ry="10" transform="rotate(180 768.5 548)" fill="#FFEFC1"/>
<ellipse cx="9.5" cy="10" rx="9.5" ry="10" transform="matrix(-1 0 0 1 887 361)" fill="#FFEFC1"/>
<ellipse cx="9.5" cy="10" rx="9.5" ry="10" transform="matrix(0 -1 -1 0 660 19)" fill="#FFEFC1"/>
<ellipse cx="9.5" cy="10" rx="9.5" ry="10" transform="matrix(0 -1 -1 0 534 127)" fill="#FFEFC1"/>
<ellipse cx="9.5" cy="10" rx="9.5" ry="10" transform="matrix(0 -1 -1 0 585 29)" fill="#FFEFC1"/>
<ellipse cx="9.5" cy="10" rx="9.5" ry="10" transform="matrix(0 -1 -1 0 585 29)" fill="#FFEFC1"/>
<ellipse cx="9.5" cy="10" rx="9.5" ry="10" transform="matrix(0 -1 -1 0 575 158)" fill="#FFEFC1"/>
<ellipse cx="9.5" cy="10" rx="9.5" ry="10" transform="matrix(0 -1 -1 0 662 71)" fill="#FFEFC1"/>
<ellipse cx="9.5" cy="10" rx="9.5" ry="10" transform="matrix(0 -1 -1 0 490 19)" fill="#FFEFC1"/>
<ellipse cx="425" cy="49.5" rx="9.5" ry="10" transform="rotate(-90 425 49.5)" fill="#FFEFC1"/>
<ellipse cx="44" cy="103.5" rx="9.5" ry="10" transform="rotate(-90 44 103.5)" fill="#FFEFC1"/>
<ellipse cx="572" cy="58.5" rx="9.5" ry="10" transform="rotate(-90 572 58.5)" fill="#FFEFC1"/>
<ellipse cx="500" cy="59.5" rx="9.5" ry="10" transform="rotate(-90 500 59.5)" fill="#FFEFC1"/>
<ellipse cx="9.5" cy="10" rx="9.5" ry="10" transform="matrix(0 -1 -1 0 534 198)" fill="#FFEFC1"/>
<ellipse cx="100.5" cy="548" rx="9.5" ry="10" transform="rotate(-180 100.5 548)" fill="#FFEFC1"/>
<ellipse cx="23.5" cy="545" rx="9.5" ry="10" transform="rotate(-180 23.5 545)" fill="#FFEFC1"/>
<ellipse cx="110.5" cy="473" rx="9.5" ry="10" transform="rotate(-180 110.5 473)" fill="#FFEFC1"/>
<ellipse cx="110.5" cy="473" rx="9.5" ry="10" transform="rotate(-180 110.5 473)" fill="#FFEFC1"/>
<ellipse cx="61.5" cy="429" rx="9.5" ry="10" transform="rotate(-180 61.5 429)" fill="#FFEFC1"/>
<ellipse cx="13.5" cy="463" rx="9.5" ry="10" transform="rotate(-180 13.5 463)" fill="#FFEFC1"/>
<ellipse cx="100.5" cy="378" rx="9.5" ry="10" transform="rotate(-180 100.5 378)" fill="#FFEFC1"/>
<ellipse cx="9.5" cy="10" rx="9.5" ry="10" transform="matrix(-1 0 0 1 150 313)" fill="#FFEFC1"/>
<ellipse cx="9.5" cy="10" rx="9.5" ry="10" transform="matrix(-1 0 0 1 81 303)" fill="#FFEFC1"/>
<ellipse cx="9.5" cy="10" rx="9.5" ry="10" transform="matrix(-1 0 0 1 160 503)" fill="#FFEFC1"/>
<ellipse cx="9.5" cy="10" rx="9.5" ry="10" transform="matrix(-1 0 0 1 160 388)" fill="#FFEFC1"/>
<ellipse cx="51.5" cy="513" rx="9.5" ry="10" transform="rotate(-180 51.5 513)" fill="#FFEFC1"/>
<ellipse cx="9.5" cy="10" rx="9.5" ry="10" transform="matrix(-1 0 0 1 802 177)" fill="#FFEFC1"/>
<ellipse cx="9.5" cy="10" rx="9.5" ry="10" transform="matrix(-1 0 0 1 753 133)" fill="#FFEFC1"/>
<ellipse cx="9.5" cy="10" rx="9.5" ry="10" transform="matrix(-1 0 0 1 812 252)" fill="#FFEFC1"/>
<ellipse cx="9.5" cy="10" rx="9.5" ry="10" transform="matrix(-1 0 0 1 812 252)" fill="#FFEFC1"/>
<ellipse cx="9.5" cy="10" rx="9.5" ry="10" transform="matrix(-1 0 0 1 763 296)" fill="#FFEFC1"/>
<ellipse cx="9.5" cy="10" rx="9.5" ry="10" transform="matrix(-1 0 0 1 852 123)" fill="#FFEFC1"/>
<ellipse cx="9.5" cy="10" rx="9.5" ry="10" transform="matrix(-1 0 0 1 802 347)" fill="#FFEFC1"/>
<ellipse cx="832.5" cy="412" rx="9.5" ry="10" transform="rotate(180 832.5 412)" fill="#FFEFC1"/>
<ellipse cx="763.5" cy="422" rx="9.5" ry="10" transform="rotate(180 763.5 422)" fill="#FFEFC1"/>
<ellipse cx="842.5" cy="222" rx="9.5" ry="10" transform="rotate(180 842.5 222)" fill="#FFEFC1"/>
<ellipse cx="842.5" cy="337" rx="9.5" ry="10" transform="rotate(180 842.5 337)" fill="#FFEFC1"/>
<ellipse cx="9.5" cy="10" rx="9.5" ry="10" transform="matrix(-1 0 0 1 753 212)" fill="#FFEFC1"/>
<ellipse cx="360.5" cy="442" rx="9.5" ry="10" fill="#FFEFC1"/>
<ellipse cx="409.5" cy="398" rx="9.5" ry="10" fill="#FFEFC1"/>
<ellipse cx="350.5" cy="517" rx="9.5" ry="10" fill="#FFEFC1"/>
<ellipse cx="350.5" cy="517" rx="9.5" ry="10" fill="#FFEFC1"/>
<ellipse cx="425.5" cy="525" rx="9.5" ry="10" fill="#FFEFC1"/>
<ellipse cx="310.5" cy="388" rx="9.5" ry="10" fill="#FFEFC1"/>
<ellipse cx="30.5" cy="284" rx="9.5" ry="10" fill="#FFEFC1"/>
<ellipse cx="9.5" cy="10" rx="9.5" ry="10" transform="matrix(1 0 0 -1 51 244)" fill="#FFEFC1"/>
<ellipse cx="9.5" cy="10" rx="9.5" ry="10" transform="matrix(1 0 0 -1 12 202)" fill="#FFEFC1"/>
<ellipse cx="9.5" cy="10" rx="9.5" ry="10" transform="matrix(1 0 0 -1 301 487)" fill="#FFEFC1"/>
<ellipse cx="9.5" cy="10" rx="9.5" ry="10" transform="matrix(1 0 0 -1 301 555)" fill="#FFEFC1"/>
<ellipse cx="409.5" cy="477" rx="9.5" ry="10" fill="#FFEFC1"/>
</svg>
