<svg width="842" height="817" viewBox="0 0 842 817" fill="none" xmlns="http://www.w3.org/2000/svg">
<path d="M87.5 733.004L25 422.004C315.8 565.204 674.5 513.67 817.5 470.004L736.5 766.004C389.3 855.604 159.167 781.337 87.5 733.004Z" fill="#B6886B"/>
<path d="M91 448.004C92.8333 539.17 105.7 729.004 142.5 759.004" stroke="#8E6F5D" stroke-width="17" stroke-linecap="round"/>
<path d="M152.75 471.004C154.601 560.998 167.593 748.39 204.75 778.004" stroke="#8E6F5D" stroke-width="17" stroke-linecap="round"/>
<path d="M241.832 480.563C243.667 569.365 233.827 706.546 247.836 787.88M313.878 502.966C313.61 589.341 311.735 769.197 306.373 797.62M384.922 502.966C384.655 589.341 382.78 769.197 377.417 797.62M464.472 507.35C464.205 593.725 462.33 773.581 456.967 802.004M558.031 502.966C557.034 589.341 550.034 769.197 530.013 797.62M628.075 502.966C627.078 589.341 620.078 769.197 600.057 797.62M723.635 480.563C721.729 566.938 708.355 746.794 670.101 775.217M777.169 464.004C775.263 550.379 761.888 730.235 723.635 758.658" stroke="#8E6F5D" stroke-width="17" stroke-linecap="round"/>
<path d="M0 410.004V360.504C14.4 343.304 37.6667 336.004 47.5 334.504C307.9 250.504 642.667 318.504 771.5 360.504C870.3 388.104 841.333 446.504 820.5 469.004C435.3 601.804 113 481.17 0 410.004Z" fill="#8E6F5D"/>
<path d="M791 421.004C453.914 471.324 47.9974 405.504 55.4974 372.004C68.0988 365.486 82.3264 357.115 90.9314 356.547C318.806 324.717 581.256 363.089 693.997 379.004C780.457 389.462 809.231 412.478 791 421.004Z" fill="#B6886B"/>
<path d="M34 490.504C127.167 555.337 409.7 656.704 794.5 543.504" stroke="#8E6F5D" stroke-width="17" stroke-linecap="round"/>
<path d="M47.5 572.003C137.91 623.745 412.085 704.644 785.5 614.301" stroke="#8E6F5D" stroke-width="17" stroke-linecap="round"/>
<path d="M64.5 646.004C149.887 698.37 408.83 780.243 761.5 688.812" stroke="#8E6F5D" stroke-width="17" stroke-linecap="round"/>
<path d="M91.5 730.003C170.517 778.628 410.141 854.654 736.5 769.753" stroke="#8E6F5D" stroke-width="17" stroke-linecap="round"/>
<path d="M282 366.504C246.8 384.504 258 416.337 268 430.004L413.5 436.504C415.667 429.837 424 406.504 440 366.504C456 326.504 408.667 314.504 383 313.504C364 323.67 317.2 348.504 282 366.504Z" fill="#C62E2E"/>
<path d="M322 386.004C313.2 377.604 315 363.17 317 357.004C315.667 359.17 311.7 365.004 306.5 371.004C301.3 377.004 286 376.504 279 375.504C279 360.322 295.505 352.643 305.025 350.331C293.227 352.53 282.841 344.485 279 340.004C294.6 326.404 315.833 331.004 324.5 335.004C331.667 340.004 341.7 346.604 324.5 333.004C307.3 319.404 330.333 293.337 344 282.004C343.167 278.837 342.4 275.604 346 288.004C349.438 299.846 346.461 312.936 344.299 318.734C347.645 311.694 369.239 298.446 380 292.504C380.333 289.504 380.8 286.104 380 296.504C379.2 306.904 373 319.17 370 324.004C366.8 328.004 352.667 328.337 346 328.004L341.5 333.004C353.5 329.404 368.167 340.17 374 346.004C358 357.204 341 350.67 334.5 346.004V350.004C334.1 370.804 326 382.67 322 386.004Z" fill="#3B6F3C"/>
<path d="M501 335.004C535.4 252.604 606 284.67 637 311.004C651.833 309.337 684.3 316.104 695.5 356.504C706.7 396.904 686.5 427.67 675 438.004H494L501 335.004Z" fill="#C62E2E"/>
<path d="M423.5 408.004C407.9 378.404 430 362.337 443 358.004C400.6 368.404 402.667 340.004 409 324.504C434.568 295.34 456.279 319.942 463.971 335.944C463.638 335.215 463.215 333.113 464 330.004C451.2 284.804 480 279.837 496 283.004C524 303.804 507.667 327.004 496 336.004C531.6 328.404 546.833 349.504 550 361.004C534.4 381.004 512.167 379.337 503 376.004C521.8 390.404 513.833 412.004 507.5 421.004C477.9 422.604 466.167 398.67 464 386.504C464 409.304 437 410.337 423.5 408.004Z" fill="white"/>
<path d="M624 260.004C615.2 268.404 617 282.837 619 289.004C617.667 286.837 613.7 281.004 608.5 275.004C603.3 269.004 588 269.504 581 270.504C581 285.685 597.505 293.364 607.025 295.676C595.227 293.477 584.841 301.523 581 306.004C596.6 319.604 617.833 315.004 626.5 311.004C633.667 306.004 643.7 299.404 626.5 313.004C609.3 326.604 632.333 352.67 646 364.004C645.167 367.17 644.4 370.404 648 358.004C651.438 346.161 648.461 333.072 646.299 327.273C649.645 334.314 671.239 347.561 682 353.504C682.333 356.504 682.8 359.904 682 349.504C681.2 339.104 675 326.837 672 322.004C668.8 318.004 654.667 317.67 648 318.004L643.5 313.004C655.5 316.604 670.167 305.837 676 300.004C660 288.804 643 295.337 636.5 300.004V296.004C636.1 275.204 628 263.337 624 260.004Z" fill="#3B6F3C"/>
<path d="M432.121 379.09C426.162 389.696 432.103 402.973 435.818 408.285C433.91 406.603 428.411 402.184 421.684 397.967C414.957 393.749 400.472 398.701 394.07 401.704C398.509 416.222 416.538 418.739 426.317 418.167C414.392 419.514 406.812 430.245 404.449 435.652C423.344 444.097 442.304 433.49 449.423 427.131C454.814 420.254 462.48 411.009 450.008 429.044C437.535 447.078 467.183 465.272 483.566 472.114C483.695 475.386 483.908 478.702 483.725 465.791C483.55 453.461 476.876 441.814 473.114 436.901C478.371 442.656 502.896 449.011 514.924 451.547C516.119 454.319 517.56 457.434 513.754 447.722C509.948 438.011 500.433 428.093 496.151 424.348C491.921 421.458 478.308 425.271 472.03 427.539L466.265 424.073C478.793 424.008 489.671 409.423 493.544 402.139C474.968 396.107 460.621 407.325 455.77 413.688L454.6 409.863C448.136 390.089 436.921 381.109 432.121 379.09Z" fill="#3B6F3C"/>
<ellipse cx="321" cy="399.504" rx="5" ry="7.5" transform="rotate(146 321 399.504)" fill="#780D0D"/>
<ellipse cx="371.339" cy="386.018" rx="5" ry="7.5" transform="rotate(146 371.339 386.018)" fill="#780D0D"/>
<ellipse cx="413.339" cy="377.018" rx="5" ry="7.5" transform="rotate(146 413.339 377.018)" fill="#780D0D"/>
<ellipse cx="366.339" cy="425.018" rx="5" ry="7.5" transform="rotate(146 366.339 425.018)" fill="#780D0D"/>
<ellipse cx="284.339" cy="425.018" rx="5" ry="7.5" transform="rotate(146 284.339 425.018)" fill="#780D0D"/>
<ellipse cx="5" cy="7.5" rx="5" ry="7.5" transform="matrix(-0.829038 -0.559193 -0.559193 0.829038 562.678 337.596)" fill="#780D0D"/>
<ellipse cx="5" cy="7.5" rx="5" ry="7.5" transform="matrix(-0.829038 -0.559193 -0.559193 0.829038 612.678 346.596)" fill="#780D0D"/>
<ellipse cx="5" cy="7.5" rx="5" ry="7.5" transform="matrix(-0.829038 -0.559193 -0.559193 0.829038 539.678 297.596)" fill="#780D0D"/>
<ellipse cx="5" cy="7.5" rx="5" ry="7.5" transform="matrix(-0.829038 -0.559193 -0.559193 0.829038 609.678 388.596)" fill="#780D0D"/>
<ellipse cx="5" cy="7.5" rx="5" ry="7.5" transform="matrix(-0.829038 -0.559193 -0.559193 0.829038 565.678 382.596)" fill="#780D0D"/>
<ellipse cx="5" cy="7.5" rx="5" ry="7.5" transform="matrix(-0.829038 -0.559193 -0.559193 0.829038 545.678 414.596)" fill="#780D0D"/>
<ellipse cx="5" cy="7.5" rx="5" ry="7.5" transform="matrix(-0.829038 -0.559193 -0.559193 0.829038 595.678 423.596)" fill="#780D0D"/>
<ellipse cx="5" cy="7.5" rx="5" ry="7.5" transform="matrix(-0.829038 -0.559193 -0.559193 0.829038 574.678 294.596)" fill="#780D0D"/>
<ellipse cx="5" cy="7.5" rx="5" ry="7.5" transform="matrix(-0.829038 -0.559193 -0.559193 0.829038 673.678 357.596)" fill="#780D0D"/>
<ellipse cx="5" cy="7.5" rx="5" ry="7.5" transform="matrix(-0.829038 -0.559193 -0.559193 0.829038 648.678 423.596)" fill="#780D0D"/>
<ellipse cx="474.5" cy="353.004" rx="19.5" ry="19" fill="#FFD452"/>
<path d="M209.066 448.004C194.02 314.91 217.449 43.8181 431.532 24.2043C645.615 4.59039 711.316 230.183 717.406 345.431" stroke="#8E6F5D" stroke-width="46" stroke-linecap="round"/>
</svg>
