<svg width="3442" height="145" viewBox="0 0 3442 145" fill="none" xmlns="http://www.w3.org/2000/svg">
<path d="M143.5 115.5C79.5 168.7 21.1667 137.667 0 115.5V0H143.5V115.5Z" fill="#F5FFC9"/>
<path d="M287 115.5C223 168.7 164.667 137.667 143.5 115.5V0H287V115.5Z" fill="#FFB3B3"/>
<path d="M717 115.5C653 168.7 594.667 137.667 573.5 115.5V0H717V115.5Z" fill="#F5FFC9"/>
<path d="M860.5 115.5C796.5 168.7 738.167 137.667 717 115.5V0H860.5V115.5Z" fill="#FFB3B3"/>
<path d="M430 115.5C366 168.7 307.667 137.667 286.5 115.5V0H430V115.5Z" fill="#F5FFC9"/>
<path d="M573.5 115.5C509.5 168.7 451.167 137.667 430 115.5V0H573.5V115.5Z" fill="#FFB3B3"/>
<path d="M1004 115.5C940 168.7 881.667 137.667 860.5 115.5V0H1004V115.5Z" fill="#F5FFC9"/>
<path d="M1147.5 115.5C1083.5 168.7 1025.17 137.667 1004 115.5V0H1147.5V115.5Z" fill="#FFB3B3"/>
<path d="M1577.5 115.5C1513.5 168.7 1455.17 137.667 1434 115.5V0H1577.5V115.5Z" fill="#F5FFC9"/>
<path d="M1721 115.5C1657 168.7 1598.67 137.667 1577.5 115.5V0H1721V115.5Z" fill="#FFB3B3"/>
<path d="M1290.5 115.5C1226.5 168.7 1168.17 137.667 1147 115.5V0H1290.5V115.5Z" fill="#F5FFC9"/>
<path d="M1434 115.5C1370 168.7 1311.67 137.667 1290.5 115.5V0H1434V115.5Z" fill="#FFB3B3"/>
<path d="M1864 115.5C1800 168.7 1741.67 137.667 1720.5 115.5V0H1864V115.5Z" fill="#F5FFC9"/>
<path d="M2007.5 115.5C1943.5 168.7 1885.17 137.667 1864 115.5V0H2007.5V115.5Z" fill="#FFB3B3"/>
<path d="M2437.5 115.5C2373.5 168.7 2315.17 137.667 2294 115.5V0H2437.5V115.5Z" fill="#F5FFC9"/>
<path d="M2581 115.5C2517 168.7 2458.67 137.667 2437.5 115.5V0H2581V115.5Z" fill="#FFB3B3"/>
<path d="M2150.5 115.5C2086.5 168.7 2028.17 137.667 2007 115.5V0H2150.5V115.5Z" fill="#F5FFC9"/>
<path d="M2294 115.5C2230 168.7 2171.67 137.667 2150.5 115.5V0H2294V115.5Z" fill="#FFB3B3"/>
<path d="M2725 115.5C2661 168.7 2602.67 137.667 2581.5 115.5V0H2725V115.5Z" fill="#F5FFC9"/>
<path d="M2868.5 115.5C2804.5 168.7 2746.17 137.667 2725 115.5V0H2868.5V115.5Z" fill="#FFB3B3"/>
<path d="M3298.5 115.5C3234.5 168.7 3176.17 137.667 3155 115.5V0H3298.5V115.5Z" fill="#F5FFC9"/>
<path d="M3442 115.5C3378 168.7 3319.67 137.667 3298.5 115.5V0H3442V115.5Z" fill="#FFB3B3"/>
<path d="M3011.5 115.5C2947.5 168.7 2889.17 137.667 2868 115.5V0H3011.5V115.5Z" fill="#F5FFC9"/>
<path d="M3155 115.5C3091 168.7 3032.67 137.667 3011.5 115.5V0H3155V115.5Z" fill="#FFB3B3"/>
</svg>
