<svg width="489" height="466" viewBox="0 0 489 466" fill="none" xmlns="http://www.w3.org/2000/svg">
<ellipse cx="250" cy="326.156" rx="97" ry="64" fill="#8E6F5D"/>
<path d="M225.659 28.238C224.332 17.6701 218.939 8.83858 209.611 4.02077C200.344 -0.816463 187.904 -1.24459 176.082 2.49624C164.261 6.23708 154.332 13.7443 149.535 23.032C144.677 32.3392 145.347 42.6653 150.341 52.073C150.341 52.073 150.341 52.073 150.341 52.073C150.996 53.3143 151.651 54.5555 152.306 55.7968C164.096 78.1391 175.886 100.481 187.677 122.824C188.332 124.065 188.987 125.306 189.642 126.547C192.229 131.421 197.092 135.341 202.615 137.619C208.169 139.886 213.929 140.325 219.174 138.665C224.419 137.005 228.878 133.333 232.117 128.283C235.323 123.243 237.046 117.238 236.358 111.764C236.358 111.764 236.358 111.764 236.358 111.764C236.18 110.372 236.002 108.979 235.823 107.587C232.614 82.5297 229.404 57.472 226.194 32.4143C226.016 31.0222 225.838 29.6301 225.659 28.238Z" fill="#B6886B"/>
<path d="M277.341 33.238C278.668 22.6701 284.061 13.8386 293.389 9.02077C302.656 4.18354 315.096 3.75541 326.918 7.49624C338.739 11.2371 348.668 18.7443 353.465 28.032C358.323 37.3392 357.653 47.6653 352.659 57.073C352.659 57.073 352.659 57.073 352.659 57.073C352.004 58.3143 351.349 59.5555 350.694 60.7968C338.904 83.1391 327.114 105.481 315.323 127.824C314.668 129.065 314.013 130.306 313.358 131.547C310.771 136.421 305.908 140.341 300.385 142.619C294.831 144.886 289.071 145.325 283.826 143.665C278.581 142.005 274.122 138.333 270.883 133.283C267.677 128.243 265.954 122.238 266.642 116.764C266.642 116.764 266.642 116.764 266.642 116.764C266.82 115.372 266.998 113.979 267.177 112.587C270.386 87.5297 273.596 62.472 276.806 37.4143C276.984 36.0222 277.162 34.6301 277.341 33.238Z" fill="#B6886B"/>
<path d="M319.376 31.331C312.267 29.0816 306.972 30.1318 304.958 31.1835L304.91 31.2079L304.861 31.2333C304.11 31.6214 303.684 32.0448 303.337 32.579C302.943 33.1868 302.397 34.3602 302.146 36.3534L302.138 36.414C301.964 37.7747 301.777 39.2335 301.603 40.5907L291.974 115.764C291.885 116.46 291.796 117.157 291.707 117.853C291.656 118.248 291.606 118.641 291.555 119.035C291.566 119.064 291.579 119.094 291.592 119.126C291.622 119.107 291.649 119.089 291.674 119.072C291.86 118.721 292.045 118.37 292.23 118.018C292.557 117.398 292.886 116.777 293.213 116.156C304.987 93.8463 316.812 71.4391 328.585 49.1298C329.222 47.9209 329.91 46.618 330.549 45.4062L330.563 45.3788L330.578 45.3515C331.519 43.5773 331.747 42.3032 331.774 41.579C331.798 40.9422 331.694 40.3505 331.302 39.6005L331.277 39.5526L331.252 39.5048C330.209 37.4849 326.482 33.5802 319.376 31.331Z" fill="#FFC7D3"/>
<path d="M181.402 25.4894C188.51 23.24 193.805 24.2902 195.82 25.3419L195.867 25.3663L195.916 25.3917C196.667 25.7798 197.093 26.2032 197.44 26.7374C197.834 27.3453 198.381 28.5186 198.631 30.5119L198.639 30.5724C198.813 31.9331 199 33.3919 199.174 34.7492L208.803 109.922C208.892 110.619 208.981 111.316 209.071 112.012C209.121 112.406 209.172 112.8 209.222 113.193C209.211 113.222 209.198 113.252 209.185 113.284C209.155 113.266 209.128 113.248 209.103 113.231C208.918 112.88 208.733 112.528 208.547 112.177C208.22 111.556 207.892 110.936 207.564 110.315C195.791 88.0047 183.966 65.5976 172.193 43.2882C171.555 42.0793 170.867 40.7764 170.228 39.5646L170.214 39.5372L170.2 39.5099C169.258 37.7357 169.03 36.4616 169.003 35.7374C168.979 35.1007 169.083 34.5089 169.475 33.7589L169.5 33.7111L169.525 33.6632C170.568 31.6433 174.295 27.7386 181.402 25.4894Z" fill="#FFC7D3"/>
<ellipse cx="249.5" cy="196.156" rx="111.5" ry="87" fill="#B6886B"/>
<ellipse cx="209" cy="204.656" rx="4" ry="8.5" fill="#504646"/>
<ellipse cx="290" cy="204.656" rx="4" ry="8.5" fill="#504646"/>
<path d="M261 227.156L246 210.156H261L246 227.156" stroke="#504646" stroke-width="3" stroke-linecap="round"/>
<path d="M489 465.156H0V394.839V334.156H489V407.361V465.156Z" fill="#FFFBC7"/>
<path d="M120.5 316.656C92 309.531 96.5 305.989 94 302.156V257.156V252.156C97.5 254.322 103 257.656 109.5 260.156C113.674 261.761 128 265.656 138 265.656C148 265.656 148.5 267.156 167.5 267.156C187.5 267.156 200 265.656 214.5 264.656C226.1 263.856 232.667 256.156 235 253.656V296.156V310.656C233 311.989 226.8 315.056 218 316.656C207 318.656 198 318.656 182.5 318.656H149.5C140.7 318.656 126.5 318.156 120.5 316.656Z" fill="#BECDEF"/>
<path d="M334.524 339.758C344.884 336.735 353.202 329.794 357.426 319.905C361.663 310.048 361.459 298.051 357.082 287.111C352.705 276.171 344.577 267.344 334.711 263.13C324.831 258.883 314.021 259.596 304.435 264.554C304.435 264.554 304.435 264.554 304.435 264.554C303.113 265.235 301.791 265.917 300.469 266.598C276.673 278.866 252.876 291.133 229.079 303.401C227.757 304.082 226.435 304.764 225.113 305.445C218.229 309.005 212.857 315.492 210.017 323.079C207.187 330.688 207.122 338.775 209.997 345.959C212.871 353.144 218.496 358.954 225.794 362.512C233.083 366.046 241.447 367.036 248.887 364.866C248.887 364.866 248.887 364.866 248.887 364.866C250.314 364.447 251.742 364.029 253.169 363.61C278.86 356.078 304.551 348.545 330.242 341.013C331.67 340.595 333.097 340.176 334.524 339.758Z" fill="#B6886B"/>
<ellipse cx="249.5" cy="69.6555" rx="13.5" ry="14.5" fill="#FFFBC7"/>
<ellipse cx="272.5" cy="75.6555" rx="13.5" ry="14.5" fill="#FFFBC7"/>
<ellipse cx="226.5" cy="75.6555" rx="13.5" ry="14.5" fill="#FFFBC7"/>
<path d="M270.686 97.7297L274.819 86.8806C275.945 83.9237 274.077 80.6772 270.954 80.1662L250.323 76.7902C249.778 76.701 249.222 76.7027 248.678 76.7951L228.751 80.179C225.728 80.6923 223.875 83.7807 224.845 86.6895L228.714 98.2963C229.346 100.195 227.933 102.156 225.932 102.156C224.313 102.156 223 103.468 223 105.088V108.156C223 110.917 225.239 113.156 228 113.156H249.5H270H272C274.761 113.156 277 110.917 277 108.156V105.419C277 103.617 275.539 102.156 273.736 102.156C271.45 102.156 269.872 99.8661 270.686 97.7297Z" fill="#FFFBC7"/>
<path d="M250 88.1555V104.156" stroke="#A3806B" stroke-width="2"/>
<path d="M232 87.6555L241 104.656" stroke="#A3806B" stroke-width="2"/>
<path d="M268 87.1555L259 104.156" stroke="#A3806B" stroke-width="2"/>
<path d="M336.5 159.656C328.5 134.656 321.967 130.208 317.5 126.656C330.9 136.191 342.244 142.342 353.5 163.656C362.505 181.155 360.787 203.238 359 210.156C355.384 224.156 350.716 232.734 347.5 238.156C345.785 238.156 340 248.156 329.932 256.156L327.108 258.16C326.904 258.417 326.691 258.507 326.321 258.718L325 259.656C325.603 259.151 326.015 258.893 326.321 258.718L327.108 258.16C327.734 257.37 328.273 254.998 333 242.656C342 219.156 342 195.156 342 195.156C342 195.156 344.5 184.656 336.5 159.656Z" fill="#8E6F5D"/>
<path d="M123.5 225.656C123.5 228.456 127.333 229.822 129 230.156C130.667 229.656 134 228.185 134 225.656C134 223.475 130.833 217.656 128.5 215.156C126.833 217.489 123.5 222.856 123.5 225.656Z" fill="#FFF893"/>
<path d="M160 225.656C160 228.456 163.833 229.822 165.5 230.156C167.167 229.656 170.5 228.185 170.5 225.656C170.5 223.475 167.333 217.656 165 215.156C163.333 217.489 160 222.856 160 225.656Z" fill="#FFF893"/>
<path d="M197 225.656C197 228.456 200.833 229.822 202.5 230.156C204.167 229.656 207.5 228.185 207.5 225.656C207.5 223.475 204.333 217.656 202 215.156C200.333 217.489 197 222.856 197 225.656Z" fill="#FFF893"/>
<path d="M95 254.656C95.6667 258.489 97.8 268.656 103 274.656C107.667 279.822 120.3 286.056 133.5 269.656" stroke="white" stroke-width="2" stroke-linecap="round"/>
<path d="M165.5 235.156C185.476 235.156 202.884 236.903 215.268 240.062C221.467 241.643 226.341 243.563 229.642 245.747C232.955 247.941 234.5 250.27 234.5 252.656C234.5 254.585 233.803 256.531 231.906 258.407C229.982 260.309 226.801 262.158 221.817 263.768C211.846 266.989 194.974 269.156 167.5 269.156C142.293 269.156 124.017 266.992 112.074 263.754C106.097 262.134 101.767 260.26 98.9551 258.298C96.1269 256.325 95 254.389 95 252.656C95 250.015 96.6468 247.563 100.086 245.33C103.522 243.1 108.578 241.211 114.966 239.691C127.727 236.654 145.514 235.156 165.5 235.156Z" fill="#FFC7D3" stroke="#BECDEF" stroke-width="2"/>
<path d="M132.5 245.406V233.406C132.5 231.334 130.821 229.656 128.75 229.656C126.679 229.656 125 231.334 125 233.406V245.406C125 247.477 126.679 249.156 128.75 249.156C130.821 249.156 132.5 247.477 132.5 245.406Z" fill="#FFFAFA"/>
<path d="M168.5 245.906V233.906C168.5 231.834 166.821 230.156 164.75 230.156C162.679 230.156 161 231.834 161 233.906V245.906C161 247.977 162.679 249.656 164.75 249.656C166.821 249.656 168.5 247.977 168.5 245.906Z" fill="white"/>
<path d="M205.5 245.906V233.906C205.5 231.834 203.821 230.156 201.75 230.156C199.679 230.156 198 231.834 198 233.906V245.906C198 247.977 199.679 249.656 201.75 249.656C203.821 249.656 205.5 247.977 205.5 245.906Z" fill="white"/>
<path d="M234 258.156C233.333 261.989 228.5 302.656 209 269.656" stroke="white" stroke-width="2" stroke-linecap="round"/>
<path d="M133.5 270.156C139.333 281.822 154.6 298.456 169 271.656" stroke="white" stroke-width="2" stroke-linecap="round"/>
<path d="M169 271.156C175.408 284.354 193.18 299.474 209 269.156" stroke="white" stroke-width="2" stroke-linecap="round"/>
<path d="M164.008 430.284C162.643 430.284 161.405 430.028 160.296 429.516C159.187 428.918 158.632 427.681 158.632 425.804C158.632 424.182 159.485 421.836 161.192 418.764C162.899 415.692 165.203 412.193 168.104 408.268C171.005 404.257 174.205 400.076 177.704 395.724C181.288 391.372 184.957 387.148 188.712 383.052C192.467 378.87 196.051 375.03 199.464 371.532C202.877 367.948 205.907 364.961 208.552 362.572C211.197 360.182 213.16 358.689 214.44 358.092C214.867 357.921 215.165 357.921 215.336 358.092C215.507 358.177 215.293 358.348 214.696 358.604C212.136 359.798 209.021 361.846 205.352 364.748C201.768 367.564 197.843 370.934 193.576 374.86C189.395 378.785 185.085 382.966 180.648 387.404C176.211 391.841 171.901 396.278 167.72 400.716C163.624 405.068 159.784 409.164 156.2 413.004C152.701 416.758 149.715 420.001 147.24 422.732C144.765 425.462 143.059 427.34 142.12 428.364C141.011 429.473 140.072 429.9 139.304 429.644C138.536 429.388 138.152 428.449 138.152 426.828C138.152 424.609 138.835 421.836 140.2 418.508C141.565 415.18 143.4 411.553 145.704 407.628C148.008 403.702 150.568 399.692 153.384 395.596C156.2 391.5 159.016 387.532 161.832 383.692C164.733 379.766 167.464 376.225 170.024 373.068C172.669 369.91 174.888 367.308 176.68 365.26C178.557 363.126 179.795 361.804 180.392 361.292C180.733 361.036 181.288 360.865 182.056 360.78C182.824 360.694 182.867 360.865 182.184 361.292C180.477 362.145 178.131 364.022 175.144 366.924C172.157 369.825 168.744 373.366 164.904 377.548C161.064 381.644 156.925 386.081 152.488 390.86C148.136 395.638 143.613 400.332 138.92 404.94C134.227 409.548 129.576 413.772 124.968 417.612C120.445 421.366 116.093 424.396 111.912 426.7C107.731 429.004 103.933 430.156 100.52 430.156C97.1067 430.156 94.7173 429.558 93.352 428.364C91.9867 427.084 91.304 425.804 91.304 424.524C91.304 422.817 91.7733 421.58 92.712 420.812C93.6507 419.958 94.5467 419.532 95.4 419.532C97.3627 419.532 98.344 420.214 98.344 421.58C98.344 422.604 98.0027 423.329 97.32 423.756C96.6373 424.097 96.0827 424.268 95.656 424.268C94.888 424.268 94.2907 424.182 93.864 424.012C93.4373 423.756 93.224 423.628 93.224 423.628C93.224 423.798 93.3093 424.31 93.48 425.164C93.5653 426.017 94.12 426.87 95.144 427.724C96.0827 428.492 97.7893 428.876 100.264 428.876C103.763 428.876 107.645 427.638 111.912 425.164C116.264 422.604 120.829 419.276 125.608 415.18C130.472 411.084 135.336 406.561 140.2 401.612C145.149 396.577 149.928 391.542 154.536 386.508C159.144 381.473 163.453 376.822 167.464 372.556C171.475 368.289 174.973 364.79 177.96 362.06C180.947 359.244 183.208 357.665 184.744 357.324C185.939 357.068 186.536 357.068 186.536 357.324C186.536 357.58 186.323 357.921 185.896 358.348C184.787 359.201 183.251 360.908 181.288 363.468C179.325 365.942 177.107 369.014 174.632 372.684C172.157 376.268 169.512 380.193 166.696 384.46C163.965 388.726 161.235 393.036 158.504 397.388C155.773 401.74 153.213 405.921 150.824 409.932C148.52 413.857 146.515 417.356 144.808 420.428C143.101 423.5 141.907 425.846 141.224 427.468C141.139 427.638 140.797 427.894 140.2 428.236C139.603 428.577 139.347 428.705 139.432 428.62C139.517 428.534 140.456 427.468 142.248 425.42C144.04 423.372 146.429 420.684 149.416 417.356C152.488 413.942 155.987 410.188 159.912 406.092C163.837 401.91 167.976 397.601 172.328 393.164C176.68 388.726 180.989 384.417 185.256 380.236C189.608 375.969 193.747 372.172 197.672 368.844C201.597 365.43 205.053 362.657 208.04 360.524C211.112 358.39 213.501 357.238 215.208 357.068C216.147 356.897 216.573 357.025 216.488 357.452C216.488 357.793 216.317 358.049 215.976 358.22C214.099 359.329 211.752 361.377 208.936 364.364C206.12 367.265 203.048 370.721 199.72 374.732C196.392 378.742 192.979 383.009 189.48 387.532C185.981 392.054 182.611 396.534 179.368 400.972C176.211 405.409 173.352 409.505 170.792 413.26C168.317 416.929 166.312 420.001 164.776 422.476C163.325 424.865 162.6 426.316 162.6 426.828C162.6 427.425 162.899 427.937 163.496 428.364C164.179 428.79 164.947 429.004 165.8 429.004C167.763 429.004 169.683 428.534 171.56 427.596C173.523 426.657 175.187 425.718 176.552 424.78C177.917 423.756 178.643 423.201 178.728 423.116C179.155 422.518 179.581 422.561 180.008 423.244C180.435 423.926 180.179 424.481 179.24 424.908C179.24 424.908 178.472 425.377 176.936 426.316C175.485 427.169 173.608 428.065 171.304 429.004C169 429.857 166.568 430.284 164.008 430.284ZM192.19 430.156C190.995 430.156 189.673 429.857 188.222 429.26C186.686 428.577 185.918 427.51 185.918 426.06C185.918 424.268 186.729 422.006 188.35 419.276C189.971 416.545 191.977 413.729 194.366 410.828C196.67 407.926 198.931 405.196 201.15 402.636C203.369 400.076 205.033 398.07 206.142 396.62C207.081 396.705 208.19 396.748 209.47 396.748C210.835 396.748 212.03 396.705 213.054 396.62C211.859 398.07 210.281 399.905 208.318 402.124C206.441 404.342 204.435 406.732 202.302 409.292C200.254 411.766 198.249 414.198 196.286 416.588C194.409 418.977 192.873 421.11 191.678 422.988C190.483 424.865 189.886 426.23 189.886 427.084C189.886 427.681 190.142 428.108 190.654 428.364C191.166 428.62 192.019 428.748 193.214 428.748C195.262 428.748 197.523 427.98 199.998 426.444C202.558 424.822 205.033 422.902 207.422 420.684C209.811 418.465 211.945 416.374 213.822 414.412C215.699 412.364 217.022 410.87 217.79 409.932L218.814 410.828C218.046 411.681 216.723 413.174 214.846 415.308C213.054 417.356 210.878 419.532 208.318 421.836C205.843 424.14 203.198 426.102 200.382 427.724C197.651 429.345 194.921 430.156 192.19 430.156ZM217.79 386.892C216.766 386.892 215.998 386.593 215.486 385.996C214.974 385.313 214.718 384.545 214.718 383.692C214.718 382.753 215.23 381.772 216.254 380.748C217.278 379.724 218.345 379.212 219.454 379.212C220.649 379.212 221.502 379.553 222.014 380.236C222.526 380.833 222.782 381.43 222.782 382.028C222.782 383.308 222.27 384.46 221.246 385.484C220.222 386.422 219.07 386.892 217.79 386.892ZM244.633 430.156C240.11 430.156 237.849 428.833 237.849 426.188C237.849 424.481 238.404 422.646 239.513 420.684C240.708 418.721 242.158 416.758 243.865 414.796C245.572 412.748 247.278 410.742 248.985 408.78C250.777 406.817 252.228 405.025 253.337 403.404C254.532 401.697 255.129 400.246 255.129 399.052C255.129 398.625 254.916 398.284 254.489 398.028C254.148 397.686 253.636 397.516 252.953 397.516C251.929 397.516 250.478 398.028 248.601 399.052C246.809 400.076 244.505 401.825 241.689 404.3C238.958 406.689 235.716 409.932 231.961 414.028C228.206 418.038 223.897 423.073 219.033 429.132C218.265 428.961 217.113 428.876 215.577 428.876C214.041 428.876 212.718 429.046 211.609 429.388C214.084 425.804 216.516 422.305 218.905 418.892C221.294 415.478 223.47 412.364 225.433 409.548C227.481 406.732 229.102 404.428 230.297 402.636C231.492 400.758 232.089 399.606 232.089 399.18C232.089 398.412 231.705 398.028 230.937 398.028C230.084 398.028 229.017 398.71 227.737 400.076C226.457 401.356 225.049 403.02 223.513 405.068C221.977 407.03 220.398 409.036 218.777 411.084L217.625 410.316C219.332 408.353 220.996 406.305 222.617 404.172C224.238 402.038 225.902 400.204 227.609 398.668C229.316 397.132 231.108 396.364 232.985 396.364C233.924 396.364 234.777 396.62 235.545 397.132C236.398 397.558 236.825 398.284 236.825 399.308C236.825 400.246 236.441 401.398 235.673 402.764C234.99 404.044 234.052 405.537 232.857 407.244C231.662 408.865 230.297 410.7 228.761 412.748C227.31 414.71 225.774 416.844 224.153 419.148L224.281 419.916C228.804 414.966 232.601 410.956 235.673 407.884C238.83 404.812 241.433 402.465 243.481 400.844C245.614 399.137 247.449 397.985 248.985 397.388C250.606 396.705 252.142 396.364 253.593 396.364C255.556 396.364 256.964 396.79 257.817 397.644C258.67 398.412 259.097 399.478 259.097 400.844C259.097 402.892 258.5 405.068 257.305 407.372C256.11 409.59 254.617 411.809 252.825 414.028C251.118 416.161 249.369 418.166 247.577 420.044C245.87 421.836 244.42 423.372 243.225 424.652C242.03 425.932 241.433 426.785 241.433 427.212C241.433 427.724 241.561 428.108 241.817 428.364C242.158 428.62 242.969 428.748 244.249 428.748C247.406 428.748 250.393 427.766 253.209 425.804C256.11 423.841 258.884 421.452 261.529 418.636C264.174 415.734 266.649 412.876 268.953 410.06L269.977 410.956C267.673 413.686 265.156 416.545 262.425 419.532C259.694 422.518 256.836 425.036 253.849 427.084C250.862 429.132 247.79 430.156 244.633 430.156ZM266.19 430.156C264.995 430.156 263.673 429.857 262.222 429.26C260.686 428.577 259.918 427.51 259.918 426.06C259.918 424.268 260.729 422.006 262.35 419.276C263.971 416.545 265.977 413.729 268.366 410.828C270.67 407.926 272.931 405.196 275.15 402.636C277.369 400.076 279.033 398.07 280.142 396.62C281.081 396.705 282.19 396.748 283.47 396.748C284.835 396.748 286.03 396.705 287.054 396.62C285.859 398.07 284.281 399.905 282.318 402.124C280.441 404.342 278.435 406.732 276.302 409.292C274.254 411.766 272.249 414.198 270.286 416.588C268.409 418.977 266.873 421.11 265.678 422.988C264.483 424.865 263.886 426.23 263.886 427.084C263.886 427.681 264.142 428.108 264.654 428.364C265.166 428.62 266.019 428.748 267.214 428.748C269.262 428.748 271.523 427.98 273.998 426.444C276.558 424.822 279.033 422.902 281.422 420.684C283.811 418.465 285.945 416.374 287.822 414.412C289.699 412.364 291.022 410.87 291.79 409.932L292.814 410.828C292.046 411.681 290.723 413.174 288.846 415.308C287.054 417.356 284.878 419.532 282.318 421.836C279.843 424.14 277.198 426.102 274.382 427.724C271.651 429.345 268.921 430.156 266.19 430.156ZM291.79 386.892C290.766 386.892 289.998 386.593 289.486 385.996C288.974 385.313 288.718 384.545 288.718 383.692C288.718 382.753 289.23 381.772 290.254 380.748C291.278 379.724 292.345 379.212 293.454 379.212C294.649 379.212 295.502 379.553 296.014 380.236C296.526 380.833 296.782 381.43 296.782 382.028C296.782 383.308 296.27 384.46 295.246 385.484C294.222 386.422 293.07 386.892 291.79 386.892ZM341.545 349.26C342.313 349.26 342.996 349.558 343.593 350.156C344.19 350.753 344.489 351.692 344.489 352.972C344.489 354.593 343.934 356.342 342.825 358.22C341.716 360.012 340.308 361.718 338.601 363.34C336.894 364.876 335.188 366.156 333.481 367.18C331.86 368.118 330.452 368.588 329.257 368.588C328.66 368.588 328.276 368.417 328.105 368.076C327.934 367.734 328.105 367.521 328.617 367.436C329.726 367.18 330.964 366.54 332.329 365.516C333.78 364.492 335.06 363.254 336.169 361.804C337.278 360.353 337.833 358.945 337.833 357.58C337.833 356.726 337.748 356.044 337.577 355.532C337.406 354.934 337.321 354.166 337.321 353.228C337.321 352.204 337.79 351.308 338.729 350.54C339.753 349.686 340.692 349.26 341.545 349.26ZM326.779 431.948C323.792 431.948 321.531 431.393 319.995 430.284C318.459 429.174 317.691 427.681 317.691 425.804C317.691 424.438 318.16 423.244 319.099 422.22C319.952 421.11 320.976 420.257 322.171 419.66C323.366 418.977 324.304 418.636 324.987 418.636C325.926 418.636 326.566 418.849 326.907 419.276C327.163 419.617 327.291 420.001 327.291 420.428C327.291 421.11 326.907 421.665 326.139 422.092C325.286 422.518 324.603 422.732 324.091 422.732C323.494 422.732 322.982 422.561 322.555 422.22C322.043 421.793 321.787 421.58 321.787 421.58C321.36 421.665 320.763 422.134 319.995 422.988C319.227 423.841 318.843 424.78 318.843 425.804C318.843 426.828 319.398 427.809 320.507 428.748C321.616 429.686 323.408 430.156 325.883 430.156C328.443 430.156 330.875 429.302 333.179 427.596C335.568 425.889 337.531 423.713 339.067 421.068C340.603 418.422 341.371 415.734 341.371 413.004C341.371 412.065 341.371 410.828 341.371 409.292C341.371 407.67 341.371 406.348 341.371 405.324C341.371 404.044 341.584 402.593 342.011 400.972C342.438 399.265 342.907 397.686 343.419 396.236C344.016 394.785 344.486 393.889 344.827 393.548C345.51 392.95 346.022 392.78 346.363 393.036C346.704 393.292 346.79 393.548 346.619 393.804C346.534 393.889 345.979 394.572 344.955 395.852C343.931 397.046 342.651 398.54 341.115 400.332C339.579 402.124 338.043 403.916 336.507 405.708C334.971 407.5 333.606 409.078 332.411 410.444C331.302 411.809 330.662 412.62 330.491 412.876C330.064 413.473 329.68 413.601 329.339 413.26C328.998 412.918 329.083 412.492 329.595 411.98C330.534 410.785 331.686 409.377 333.051 407.756C334.502 406.049 335.952 404.385 337.403 402.764C338.854 401.142 340.091 399.777 341.115 398.668C342.224 397.473 342.822 396.79 342.907 396.62C343.163 396.278 343.376 395.681 343.547 394.828C343.803 393.974 344.102 393.164 344.443 392.396C344.87 391.628 345.382 391.244 345.979 391.244C347.43 391.244 348.155 391.756 348.155 392.78C348.155 393.548 347.558 394.486 346.363 395.596C345.254 396.705 344.614 397.601 344.443 398.284C344.187 399.308 344.187 400.758 344.443 402.636C344.784 404.428 345.126 406.476 345.467 408.78C345.894 411.084 346.107 413.516 346.107 416.076C346.107 419.489 345.424 422.262 344.059 424.396C342.694 426.444 340.987 428.022 338.939 429.132C336.891 430.241 334.758 430.966 332.539 431.308C330.406 431.734 328.486 431.948 326.779 431.948ZM346.491 423.116C344.272 423.116 342.822 422.689 342.139 421.836C341.542 420.982 341.328 420.001 341.499 418.892C341.755 417.697 342.054 416.63 342.395 415.692L343.675 415.82C343.419 416.673 343.163 417.569 342.907 418.508C342.736 419.446 342.864 420.257 343.291 420.94C343.718 421.622 344.827 421.964 346.619 421.964C347.899 421.964 349.35 421.366 350.971 420.172C352.592 418.977 354.171 417.526 355.707 415.82C357.328 414.113 358.694 412.449 359.803 410.828L360.955 411.724C359.846 413.089 358.48 414.668 356.859 416.46C355.323 418.252 353.659 419.83 351.867 421.196C350.075 422.476 348.283 423.116 346.491 423.116Z" fill="#1E1E1E"/>
<path d="M216.316 457.23C214.746 458.136 212.918 458.589 210.832 458.589C208.168 458.589 206.066 457.773 204.527 456.14C202.996 454.507 202.23 452.277 202.23 449.449C202.23 446.581 202.969 444.355 204.445 442.769C205.922 441.175 207.992 440.378 210.656 440.378C212.016 440.378 213.801 440.667 216.012 441.245V444.562H214.57L214.559 444.327C214.551 444.093 214.543 443.863 214.535 443.636C214.535 442.87 214.18 442.269 213.469 441.831C212.758 441.386 211.789 441.163 210.562 441.163C208.805 441.163 207.402 441.913 206.355 443.413C205.309 444.913 204.785 446.917 204.785 449.425C204.785 451.941 205.398 453.906 206.625 455.32C207.852 456.726 209.559 457.429 211.746 457.429C213.176 457.429 214.699 456.988 216.316 456.105V457.23ZM222.07 452.812L221.074 455.12C220.684 456.027 220.488 456.632 220.488 456.937C220.488 457.265 220.992 457.429 222 457.429H222.188V458.156H217.688V457.429L217.934 457.417C218.605 457.386 219.004 457.304 219.129 457.171C219.262 457.031 219.59 456.347 220.113 455.12L226.219 440.589H227.039L233.121 455.202C233.598 456.249 233.934 456.874 234.129 457.077C234.324 457.273 234.707 457.386 235.277 457.417L235.547 457.429V458.156H229.113V457.429H229.324C230.418 457.429 230.965 457.273 230.965 456.96C230.965 456.499 230.801 455.886 230.473 455.12L229.5 452.812H222.07ZM222.457 451.863H229.078L225.785 443.964L222.457 451.863ZM240.68 449.39V455.12C240.68 456.167 240.758 456.8 240.914 457.019C241.07 457.23 241.547 457.363 242.344 457.417L242.555 457.429V458.156H236.051V457.429L236.273 457.417C237.219 457.355 237.777 457.222 237.949 457.019C238.129 456.808 238.219 456.175 238.219 455.12V443.847C238.219 442.784 238.129 442.152 237.949 441.949C237.777 441.745 237.219 441.613 236.273 441.55L236.051 441.527V440.812H242.848V441.527L242.625 441.55C241.672 441.613 241.109 441.745 240.938 441.949C240.766 442.152 240.68 442.784 240.68 443.847V449.32L245.93 443.847C247.078 442.566 247.652 441.863 247.652 441.738C247.652 441.597 247.086 441.527 245.953 441.527H245.742V440.812H251.086V441.527L250.887 441.55C249.973 441.597 249.41 441.683 249.199 441.808C248.996 441.933 248.285 442.616 247.066 443.859L242.637 448.37L248.707 455.132C249.738 456.241 250.398 456.89 250.688 457.077C250.984 457.257 251.52 457.37 252.293 457.417L252.539 457.429V458.156H245.449V457.429H245.66C246.613 457.429 247.098 457.335 247.113 457.148C247.129 456.898 246.645 456.21 245.66 455.085L240.68 449.39ZM265.547 458.156H253.043V457.429L253.266 457.417C254.211 457.355 254.77 457.222 254.941 457.019C255.121 456.808 255.211 456.175 255.211 455.12V443.847C255.211 442.784 255.121 442.152 254.941 441.949C254.77 441.745 254.211 441.613 253.266 441.55L253.043 441.527V440.812H264.902V443.847H263.602L263.578 443.624C263.516 442.546 263.434 441.964 263.332 441.878C263.238 441.792 262.613 441.749 261.457 441.749H257.672V448.687L260.848 448.675C261.551 448.675 261.98 448.64 262.137 448.57C262.301 448.491 262.398 448.12 262.43 447.456L262.441 447.245H263.379V451.066H262.441L262.43 450.855C262.398 450.261 262.301 449.909 262.137 449.8C261.98 449.683 261.551 449.624 260.848 449.624H257.672V455.12C257.672 456.027 257.777 456.593 257.988 456.82C258.207 457.038 258.766 457.148 259.664 457.148H261.516C262.891 457.148 263.672 457.081 263.859 456.949C264.055 456.808 264.18 456.222 264.234 455.191L264.246 454.98H265.547V458.156ZM267.527 457.804V454.464H268.758L268.77 454.675C268.793 455.066 268.805 455.359 268.805 455.554C268.805 456.171 269.059 456.636 269.566 456.949C270.395 457.464 271.309 457.722 272.309 457.722C273.348 457.722 274.16 457.429 274.746 456.843C275.332 456.249 275.625 455.433 275.625 454.394C275.625 453.519 275.438 452.824 275.062 452.308C274.688 451.792 273.957 451.23 272.871 450.62L271.641 449.917C268.984 448.417 267.656 446.781 267.656 445.007C267.656 443.671 268.133 442.566 269.086 441.691C270.047 440.816 271.25 440.378 272.695 440.378C273.32 440.378 273.996 440.441 274.723 440.566C275.457 440.683 276.242 440.866 277.078 441.116V444.199H275.777L275.766 443.999C275.734 443.577 275.719 443.269 275.719 443.074C275.719 442.417 275.484 441.937 275.016 441.632C274.547 441.32 273.812 441.163 272.812 441.163C271.977 441.163 271.297 441.441 270.773 441.995C270.258 442.542 270 443.265 270 444.163C270 444.929 270.18 445.562 270.539 446.062C270.898 446.562 271.547 447.077 272.484 447.609L273.715 448.312C275.418 449.281 276.566 450.124 277.16 450.843C277.754 451.562 278.051 452.464 278.051 453.55C278.051 454.995 277.512 456.199 276.434 457.159C275.363 458.113 274.023 458.589 272.414 458.589C271.477 458.589 270.598 458.523 269.777 458.39C268.965 458.257 268.215 458.062 267.527 457.804Z" fill="#1E1E1E"/>
<path d="M350.603 315.096C307.768 348.668 241.557 353.974 214.5 353.656C214.5 354.822 221.809 360.702 225.5 362.656C237.205 368.852 251.583 364.438 264.399 361.095L268 360.156L313 346.656C318.062 345.209 329.4 342.194 338.882 337.988C345.571 335.021 350.326 329.33 355.5 324.156C359.5 320.156 361 300.656 360.5 303.656C359.664 308.671 354.604 311.96 350.603 315.096Z" fill="#8E6F5D"/>
</svg>
